<svg xmlns="http://www.w3.org/2000/svg" xmlns:xlink="http://www.w3.org/1999/xlink" width="124" height="106" viewBox="0 0 124 106">
    <defs>
        <linearGradient id="linear-gradient" x1="-.01" x2=".863" y1=".028" y2=".798" gradientUnits="objectBoundingBox">
            <stop offset="0" stop-color="#ce2e2e"/>
            <stop offset=".995" stop-color="#aa1f1f"/>
        </linearGradient>
        <linearGradient id="linear-gradient-2" x1=".495" x2=".505" y1=".093" y2=".873" xlink:href="#linear-gradient"/>
        <linearGradient id="linear-gradient-3" x1="-.243" x2=".835" y1=".699" y2=".699" xlink:href="#linear-gradient"/>
        <linearGradient id="linear-gradient-4" x1="-.08" x2="1.182" y1=".783" y2=".166" gradientUnits="objectBoundingBox">
            <stop offset="0" stop-color="#fff" stop-opacity=".2"/>
            <stop offset="1" stop-color="#fff" stop-opacity="0"/>
        </linearGradient>
        <linearGradient id="linear-gradient-5" x1=".005" x2=".988" y1=".413" y2=".413" xlink:href="#linear-gradient"/>
        <linearGradient id="linear-gradient-6" x1=".509" x2=".462" y1=".146" y2=".76" gradientUnits="objectBoundingBox">
            <stop offset=".005" stop-color="#ff4a4a"/>
            <stop offset="1" stop-color="#e24747"/>
        </linearGradient>
        <linearGradient id="linear-gradient-7" x1="0" x2="1" y1=".5" y2=".5" xlink:href="#linear-gradient"/>
        <linearGradient id="linear-gradient-8" x1=".381" x2="1.381" y1=".5" y2=".5" xlink:href="#linear-gradient"/>
        <linearGradient id="linear-gradient-9" x1=".175" x2="1.249" y1=".892" y2=".892" xlink:href="#linear-gradient"/>
        <linearGradient id="linear-gradient-10" x1=".976" x2="2.05" y1="-1.508" y2="-1.508" xlink:href="#linear-gradient"/>
        <linearGradient id="linear-gradient-11" x1="-3.951" x2="-2.702" y1="-2.956" y2="-2.956" xlink:href="#linear-gradient"/>
        <linearGradient id="linear-gradient-12" x1="-4.118" x2="-3.045" y1="-2.716" y2="-2.716" xlink:href="#linear-gradient"/>
        <linearGradient id="linear-gradient-13" x1="-1.052" x2=".021" y1="-1.277" y2="-1.277" xlink:href="#linear-gradient"/>
        <linearGradient id="linear-gradient-14" x1="-.382" x2=".681" y1="-1.179" y2="-1.179" xlink:href="#linear-gradient"/>
        <linearGradient id="linear-gradient-15" x1=".817" x2="1.891" y1="1.527" y2="1.527" xlink:href="#linear-gradient"/>
        <linearGradient id="linear-gradient-16" x1="1.79" x2="2.863" y1="1.262" y2="1.262" xlink:href="#linear-gradient"/>
        <linearGradient id="linear-gradient-17" x1=".495" x2=".501" y1=".059" y2=".797" xlink:href="#linear-gradient-4"/>
        <linearGradient id="linear-gradient-20" x1=".098" x2=".87" y1=".595" y2=".459" gradientUnits="objectBoundingBox">
            <stop offset=".097" stop-color="#fff" stop-opacity=".396"/>
            <stop offset=".337" stop-color="#fff" stop-opacity=".6"/>
            <stop offset="1" stop-color="#fff" stop-opacity=".102"/>
        </linearGradient>
        <linearGradient id="linear-gradient-21" x1="1.11" x2=".096" y1=".091" y2="1.163" gradientUnits="objectBoundingBox">
            <stop offset=".097" stop-color="#fff" stop-opacity=".102"/>
            <stop offset=".51" stop-color="#fff" stop-opacity=".4"/>
            <stop offset=".995" stop-color="#fff" stop-opacity=".102"/>
        </linearGradient>
        <linearGradient id="linear-gradient-29" x1=".68" x2=".375" y1="-.027" y2="1.463" xlink:href="#linear-gradient-20"/>
        <linearGradient id="linear-gradient-30" x1=".014" x2="1.006" y1=".407" y2=".407" xlink:href="#linear-gradient"/>
        <linearGradient id="linear-gradient-31" x1="-.003" x2=".988" y1=".785" y2=".785" xlink:href="#linear-gradient"/>
        <linearGradient id="linear-gradient-32" x1=".038" x2="1.03" y1=".764" y2=".764" xlink:href="#linear-gradient"/>
        <linearGradient id="linear-gradient-33" x1=".012" x2="1.004" y1="1.312" y2="1.312" xlink:href="#linear-gradient"/>
        <linearGradient id="linear-gradient-34" x1=".074" x2="1.363" y1="1.82" y2="1.82" xlink:href="#linear-gradient"/>
        <linearGradient id="linear-gradient-35" x1=".532" x2=".225" y1=".013" y2="1.017" gradientUnits="objectBoundingBox">
            <stop offset=".056" stop-color="#b42f1b"/>
            <stop offset=".158" stop-color="#f17600"/>
            <stop offset=".265" stop-color="#ffc82a"/>
            <stop offset=".308" stop-color="#f9bd28"/>
            <stop offset=".54" stop-color="#e08821"/>
            <stop offset=".741" stop-color="#ce611b"/>
            <stop offset=".901" stop-color="#c34918"/>
            <stop offset="1" stop-color="#bf4117"/>
        </linearGradient>
        <linearGradient id="linear-gradient-36" x1="1.711" x2="1.404" y1=".006" y2="1.018" gradientUnits="objectBoundingBox">
            <stop offset=".056" stop-color="#b42f1b"/>
            <stop offset=".158" stop-color="#f17600"/>
            <stop offset=".286" stop-color="#ffe655"/>
            <stop offset=".602" stop-color="#fa0"/>
            <stop offset="1" stop-color="#cc5712"/>
        </linearGradient>
        <linearGradient id="linear-gradient-37" x1=".002" x2="1.12" y1=".769" y2=".003" gradientUnits="objectBoundingBox">
            <stop offset=".056" stop-color="#b42f1b"/>
            <stop offset=".327" stop-color="#f17600"/>
            <stop offset=".648" stop-color="#f1ab26"/>
            <stop offset=".738" stop-color="#e08721"/>
            <stop offset=".852" stop-color="#ce611b"/>
            <stop offset=".943" stop-color="#c34918"/>
            <stop offset="1" stop-color="#bf4117"/>
        </linearGradient>
        <linearGradient id="linear-gradient-38" x1=".052" x2="1.097" y1=".82" y2=".237" gradientUnits="objectBoundingBox">
            <stop offset=".199" stop-color="#e96640"/>
            <stop offset=".51" stop-color="#ffc82a"/>
            <stop offset=".518" stop-color="#ffc92b"/>
            <stop offset=".655" stop-color="#ffde49"/>
            <stop offset=".732" stop-color="#ffe655"/>
            <stop offset=".852" stop-color="#f3bf3f"/>
            <stop offset=".98" stop-color="#d36a1e"/>
        </linearGradient>
        <linearGradient id="linear-gradient-39" x2="1" y1=".5" y2=".5" gradientUnits="objectBoundingBox">
            <stop offset="0" stop-color="#f17600"/>
            <stop offset=".383" stop-color="#ffc82a"/>
            <stop offset=".395" stop-color="#ffc92b"/>
            <stop offset=".612" stop-color="#ffde49"/>
            <stop offset=".735" stop-color="#ffe655"/>
            <stop offset="1" stop-color="#ffd394"/>
        </linearGradient>
        <linearGradient id="linear-gradient-40" x1="-1.432" x2="1.489" y1="1.708" y2=".039" xlink:href="#linear-gradient-20"/>
        <linearGradient id="linear-gradient-41" x1=".101" x2=".932" y1=".218" y2=".991" xlink:href="#linear-gradient-37"/>
        <linearGradient id="linear-gradient-42" x1="-.164" x2="1.051" y1=".066" y2=".872" gradientUnits="objectBoundingBox">
            <stop offset=".122" stop-color="#f8a116"/>
            <stop offset=".276" stop-color="#d56f1f"/>
            <stop offset=".421" stop-color="#eea425"/>
            <stop offset=".51" stop-color="#ffc82a"/>
            <stop offset=".518" stop-color="#ffc92b"/>
            <stop offset=".655" stop-color="#ffde49"/>
            <stop offset=".732" stop-color="#ffe655"/>
            <stop offset=".852" stop-color="#f3bf3f"/>
            <stop offset="1" stop-color="#d36a1e"/>
        </linearGradient>
        <linearGradient id="linear-gradient-43" x1="-1.56" x2="2.173" y1="-.335" y2="1.247" xlink:href="#linear-gradient-20"/>
        <linearGradient id="linear-gradient-45" x1=".861" x2=".007" y1="-.036" y2=".881" gradientUnits="objectBoundingBox">
            <stop offset=".056" stop-color="#b42f1b"/>
            <stop offset=".347" stop-color="#f17600"/>
            <stop offset=".714" stop-color="#ffc82a"/>
            <stop offset=".724" stop-color="#ffc92b"/>
            <stop offset=".897" stop-color="#ffde49"/>
            <stop offset=".995" stop-color="#ffe655"/>
        </linearGradient>
        <linearGradient id="linear-gradient-46" x1="1.033" x2="-.092" y1=".05" y2=".826" xlink:href="#linear-gradient-39"/>
        <linearGradient id="linear-gradient-47" x1="0" x2="1" y1=".5" y2=".5" xlink:href="#linear-gradient-45"/>
        <linearGradient id="linear-gradient-49" x1=".349" x2=".647" y1="1.384" y2="-.119" gradientUnits="objectBoundingBox">
            <stop offset="0" stop-color="#f89d14"/>
            <stop offset=".037" stop-color="#e68016"/>
            <stop offset=".085" stop-color="#d36219"/>
            <stop offset=".133" stop-color="#c64b1b"/>
            <stop offset=".178" stop-color="#bd3e1c"/>
            <stop offset=".219" stop-color="#bb3a1d"/>
            <stop offset=".263" stop-color="#bf401b"/>
            <stop offset=".322" stop-color="#cc5116"/>
            <stop offset=".389" stop-color="#e26d0e"/>
            <stop offset=".434" stop-color="#f48408"/>
            <stop offset=".653" stop-color="#ffc82a"/>
            <stop offset=".665" stop-color="#ffc92b"/>
            <stop offset=".876" stop-color="#ffde49"/>
            <stop offset=".995" stop-color="#ffe655"/>
        </linearGradient>
        <linearGradient id="linear-gradient-50" x1=".526" x2=".396" y1=".085" y2="3.222" xlink:href="#linear-gradient-20"/>
        <linearGradient id="linear-gradient-51" x1="3.235" x2="1.507" y1="-1.495" y2="3.409" xlink:href="#linear-gradient-20"/>
        <style>
            .cls-1{fill:#ff45b0}.cls-2{fill:#ff9a00}.cls-3{fill:#ff0}.cls-15{opacity:.6}.cls-37,.cls-7{fill:#5b0909}.cls-7{opacity:.3}.cls-15{mix-blend-mode:multiply;isolation:isolate;fill:url(#linear-gradient-7)}.cls-25{fill:#ff4a4a}.cls-37{opacity:.5}.cls-45{fill:url(#linear-gradient-39)}
        </style>
    </defs>
    <g id="gift_box" transform="translate(-240 -414.452)">
        <g id="confetti" transform="translate(240 414.452)">
            <g id="Group_10925" transform="translate(0 .396)">
                <path id="Path_14211" d="M1137.968 621.919a2.79 2.79 0 1 1 2.791 2.793 2.792 2.792 0 0 1-2.791-2.793z" class="cls-1" transform="translate(-1028.38 -532.51)"/>
                <path id="Path_14212" d="M989.968 423.919a2.79 2.79 0 1 1 2.79 2.794 2.792 2.792 0 0 1-2.79-2.794z" class="cls-1" transform="translate(-911.725 -376.491)"/>
                <path id="Path_14215" d="M1170.563 646.318a1.213 1.213 0 1 1 1.213 1.214 1.214 1.214 0 0 1-1.213-1.214z" class="cls-1" transform="translate(-1054.071 -552.981)"/>
                <path id="Path_14219" d="M1136.835 659.33a1.629 1.629 0 1 1 1.628 1.631 1.629 1.629 0 0 1-1.628-1.631z" class="cls-2" transform="translate(-1027.488 -562.906)"/>
                <path id="Path_14221" d="M985.835 467.33a1.629 1.629 0 1 1 1.629 1.63 1.629 1.629 0 0 1-1.629-1.63z" class="cls-2" transform="translate(-908.467 -411.614)"/>
                <path id="Path_14222" d="M1127.835 510.33a1.629 1.629 0 1 1 1.629 1.63 1.629 1.629 0 0 1-1.629-1.63z" class="cls-2" transform="translate(-1020.393 -445.497)"/>
                <path id="Path_14236" d="M694.2 407.975a1.214 1.214 0 1 1-1.592.639 1.215 1.215 0 0 1 1.592-.639z" class="cls-1" transform="translate(-677.265 -366.051)"/>
                <path id="Path_14237" d="M983.2 168.975a1.214 1.214 0 1 1-1.592.639 1.215 1.215 0 0 1 1.592-.639z" class="cls-1" transform="translate(-954.058 -153.728)"/>
                <path id="Path_14240" d="M684.967 438.129a2.791 2.791 0 1 1-1.312-3.726 2.789 2.789 0 0 1 1.312 3.726z" class="cls-1" transform="translate(-667.136 -386.737)"/>
                <path id="Path_14241" d="M623.758 421.921a1.629 1.629 0 1 1-1.91-1.289 1.631 1.631 0 0 1 1.91 1.289z" class="cls-2" transform="translate(-620.53 -376.078)"/>
                <path id="Path_14242" d="M902.758 211.921a1.629 1.629 0 1 1-1.91-1.289 1.631 1.631 0 0 1 1.91 1.289z" class="cls-2" transform="translate(-840.44 -210.602)"/>
                <g id="Group_10897" transform="translate(109.682 41.101)">
                    <path id="Path_14258" d="M1138.413 407.925c2.8-.365 3.1-.661 3.464-3.468.365 2.807.66 3.1 3.464 3.468-2.8.365-3.1.661-3.464 3.468-.364-2.807-.659-3.103-3.464-3.468z" class="cls-3" transform="translate(-1138.413 -404.457)"/>
                    <path id="Path_14259" d="M1138.413 407.925c2.8-.365 3.1-.661 3.464-3.468.365 2.807.66 3.1 3.464 3.468-2.8.365-3.1.661-3.464 3.468-.364-2.807-.659-3.103-3.464-3.468z" class="cls-3" transform="translate(-1138.413 -404.457)"/>
                </g>
                <g id="Group_10898" transform="translate(51.652 37.497)">
                    <path id="Path_14260" d="M864.413 390.925c2.8-.365 3.1-.661 3.465-3.468.364 2.807.66 3.1 3.465 3.468-2.8.365-3.1.661-3.465 3.468-.365-2.807-.66-3.103-3.465-3.468z" class="cls-3" transform="translate(-864.413 -387.457)"/>
                    <path id="Path_14261" d="M864.413 390.925c2.8-.365 3.1-.661 3.465-3.468.364 2.807.66 3.1 3.465 3.468-2.8.365-3.1.661-3.465 3.468-.365-2.807-.66-3.103-3.465-3.468z" class="cls-3" transform="translate(-864.413 -387.457)"/>
                </g>
                <g id="Group_10902" transform="translate(13.525 71.457)">
                    <path id="Path_14268" d="M489.413 187.681c5.034-.655 5.563-1.186 6.218-6.224.654 5.039 1.184 5.57 6.217 6.224-5.034.655-5.564 1.186-6.217 6.225-.654-5.039-1.184-5.57-6.218-6.225z" class="cls-3" transform="translate(-489.413 -181.457)"/>
                    <path id="Path_14269" d="M489.413 187.681c5.034-.655 5.563-1.186 6.218-6.224.654 5.039 1.184 5.57 6.217 6.224-5.034.655-5.564 1.186-6.217 6.225-.654-5.039-1.184-5.57-6.218-6.225z" class="cls-3" transform="translate(-489.413 -181.457)"/>
                </g>
                <path id="Path_14216" d="M1194.563 484.318a1.213 1.213 0 1 1 1.213 1.214 1.213 1.213 0 0 1-1.213-1.214z" class="cls-1" transform="translate(-1072.989 -425.328)"/>
            </g>
            <g id="Group_10926" transform="rotate(90 49.805 49.805)">
                <path id="Path_14224" d="M5.587 2.791A2.794 2.794 0 1 0 2.794 5.58a2.794 2.794 0 0 0 2.793-2.789z" class="cls-1" transform="rotate(-101 70.417 -16.982)"/>
                <path id="Path_14226" d="M0 1.214A1.213 1.213 0 1 0 1.213 0 1.214 1.214 0 0 0 0 1.214z" class="cls-1" transform="rotate(90 30.625 68.433)"/>
                <path id="Path_14228" d="M0 1.631A1.629 1.629 0 1 0 1.628 0 1.629 1.629 0 0 0 0 1.631z" class="cls-2" transform="rotate(90 26.547 70.676)"/>
                <path id="Path_14231" d="M4.818.868A2.792 2.792 0 1 1 .869.767a2.788 2.788 0 0 1 3.949.101z" class="cls-1" transform="translate(86.608 74.673)"/>
                <path id="Path_14235" d="M1.91.024A1.629 1.629 0 1 1 .024 1.35 1.629 1.629 0 0 1 1.91.024z" class="cls-2" transform="translate(80.845 84.081)"/>
                <g id="Group_10899" transform="translate(0 71.109)">
                    <path id="Path_14262" d="M0 6.557C5.315 5.868 5.874 5.308 6.565 0c.69 5.308 1.25 5.868 6.564 6.557-5.314.69-5.874 1.249-6.564 6.557C5.874 7.806 5.315 7.247 0 6.557z" class="cls-3"/>
                    <path id="Path_14263" d="M0 6.557C5.315 5.868 5.874 5.308 6.565 0c.69 5.308 1.25 5.868 6.564 6.557-5.314.69-5.874 1.249-6.564 6.557C5.874 7.806 5.315 7.247 0 6.557z" class="cls-3"/>
                </g>
                <g id="Group_10901" transform="translate(86.928)">
                    <path id="Path_14266" d="M0 3.464C2.808 3.1 3.1 2.8 3.468 0c.365 2.8.66 3.1 3.468 3.464-2.808.364-3.1.66-3.468 3.464C3.1 4.124 2.808 3.829 0 3.464z" class="cls-3"/>
                    <path id="Path_14267" d="M0 3.464C2.808 3.1 3.1 2.8 3.468 0c.365 2.8.66 3.1 3.468 3.464-2.808.364-3.1.66-3.468 3.464C3.1 4.124 2.808 3.829 0 3.464z" class="cls-3"/>
                </g>
            </g>
        </g>
        <g id="gift_box-2" transform="translate(270.016 419.999)">
            <g id="Group_10578" transform="translate(0 26.612)">
                <g id="Group_10577" transform="translate(.222 7.746)">
                    <path id="Path_13915" fill="url(#linear-gradient)" d="M219.188 313.927a.548.548 0 0 0-.828.567v41.118c0 1.252 4.96 2.094 5.787 2.365 2.972.973 21.818 6.28 28.174 8.175 1.423.424 2.8.614 4.222 1.028l.056-44.674-36.317-9z" transform="translate(-218.36 -313.507)"/>
                </g>
                <path id="Path_13916" fill="url(#linear-gradient-2)" d="M447.28 321.022l-.474 42.185-35.094 10.041V328.36z" transform="translate(-373.306 -311.83)"/>
                <path id="Path_13917" fill="#aa1f1f" d="M424.048 336.255l14.037 4.513 17.054-12.185L438.9 343.25z" opacity="0.6" transform="translate(-383.206 -317.935)"/>
                <path id="Path_13918" d="M434.614 493.875l-16.482 18.449 16.482-13.034 16.01 3.949z" class="cls-7" transform="translate(-378.459 -451.411)"/>
                <path id="Path_13919" d="M512.067 504.249l-3.217.938-1.287 3.6-1.661-3.306-3.386-.282 2.325-2.843-.686-3.655 3.052 1.5 2.937-2-.5 3.709z" transform="translate(-446.179 -454.907)" style="isolation:isolate;mix-blend-mode:multiply" fill="url(#linear-gradient-3)" opacity="0.6"/>
                <path id="Path_13920" fill="#dd3636" d="M290.145 281.013c-3.245-.812-6.512-1.578-9.751-2.42-5.5-1.429-11.036-2.7-16.542-4.084-4.252-1.067-7.948-1.787-12.257-.712-2.812.7-5.688 1.2-8.523 1.813-6.385 1.377-12.783 2.7-19.175 4.044l-4.42.93 37.87 9.708 27.243-6.48 7.537-1.59z" transform="translate(-219.034 -273.267)"/>
                <path id="Path_13921" fill="#d33737" d="M498.127 322.721l-22.97 18.954V357.7l22.509 7.155z" transform="translate(-424.222 -313.202)"/>
                <path id="Path_13922" fill="url(#linear-gradient-4)" d="M478.275 383.029c3.805-1.99 16.963-8.412 19.69-9.723l.068-6.188c-2.5 1-17.177 7.494-18.744 7.9l-4.133 2.508v7c1.053-.473 2.098-.963 3.119-1.497z" transform="translate(-424.221 -349.052)"/>
                <path id="Path_13923" d="M509.063 459.609l-3.49-1.689-4.033 2.059 1.293-4.082-2.637-2.853 4.29-.612 2.4-3.625 1.359 3.629 4.122.572-3.451 2.755z" transform="translate(-444.317 -415.017)" style="isolation:isolate;mix-blend-mode:multiply" fill="url(#linear-gradient-5)" opacity="0.6"/>
                <path id="Path_13924" fill="#aa1f1f" d="M490.624 395.989a5.513 5.513 0 0 1 3.712 3.949c.58 3.046 4.292 15.457-2.784 19.18l-3.133-1.467-.928-18.729z" opacity="0.4" transform="translate(-434.121 -372.367)"/>
                <path id="Path_13925" fill="url(#linear-gradient-6)" d="M409.972 361.13l24.224 8.515.232 14.1-23.006 21.175-1.472-.074z" transform="translate(-371.892 -344.217)"/>
                <path id="Path_13926" d="M432.3 404.769l-3.75-1.037-3.575 2.744.5-4.244-3.131-2.333 4.1-1.368 1.679-3.993 2.021 3.324 4.16-.174-2.872 3.325z" class="cls-15" transform="translate(-381.835 -371.195)"/>
                <path id="Path_13927" d="M230.534 350.054l3.75-1.116 3.576 2.952-.5-4.565 3.131-2.51-4.1-1.472-1.679-4.295-2.021 3.575-4.16-.187 2.872 3.576z" transform="translate(-226.299 -326.387)" style="isolation:isolate;mix-blend-mode:multiply" fill="url(#linear-gradient-8)" opacity="0.3"/>
                <path id="Path_13928" d="M481.712 460.662l-2.366.566-1.067 2.567-1.079-2.455-2.443-.324 1.791-1.978-.36-2.673 2.155 1.2 2.2-1.347-.5 2.67z" transform="translate(-423.901 -420.999)" style="isolation:isolate;mix-blend-mode:multiply" fill="url(#linear-gradient-9)" opacity="0.6"/>
                <path id="Path_13929" d="M237.587 492.033l2.8.669 1.262 3.035 1.277-2.9 2.889-.383-2.118-2.339.426-3.161-2.549 1.414-2.6-1.593.592 3.157z" transform="translate(-233.568 -445.676)" style="isolation:isolate;mix-blend-mode:multiply" fill="url(#linear-gradient-10)" opacity="0.3"/>
                <path id="Path_13930" d="M349.123 434.68l1.941 1.509-.165 2.8 2.107-1.8 2.413.725-.771-2.563 1.538-2.3-2.539.195-1.438-2.157-.738 2.657z" transform="translate(-323.078 -400.712)" style="isolation:isolate;mix-blend-mode:multiply" fill="url(#linear-gradient-11)" opacity="0.6"/>
                <path id="Path_13931" d="M348.028 503.756l2.8.67 1.262 3.035 1.276-2.9 2.889-.383-2.118-2.339.426-3.161-2.549 1.414-2.6-1.593.592 3.157z" transform="translate(-322.199 -455.142)" style="isolation:isolate;mix-blend-mode:multiply" fill="url(#linear-gradient-12)" opacity="0.6"/>
                <path id="Path_13932" d="M313.732 371.094l4.15.993 1.872 4.5 1.893-4.305 4.285-.569-3.141-3.469.632-4.688-3.781 2.1-3.864-2.363.878 4.683z" transform="translate(-294.676 -345.963)" style="isolation:isolate;mix-blend-mode:multiply" fill="url(#linear-gradient-13)" opacity="0.6"/>
                <path id="Path_13933" d="M277.013 438.587l3.937-.28 2.966 3.435.4-4.307 3.6-1.689-3.777-2.175-.822-4.293-2.705 2.892-4.087-1 2.146 3.869z" transform="translate(-264.812 -399.247)" style="isolation:isolate;mix-blend-mode:multiply" fill="url(#linear-gradient-14)" opacity="0.4"/>
                <path id="Path_13934" d="M517.6 405.52l-2.366.566-1.067 2.567-1.079-2.455-2.443-.324 1.791-1.978-.36-2.673 2.156 1.2 2.2-1.347-.5 2.67z" transform="translate(-452.701 -376.472)" style="isolation:isolate;mix-blend-mode:multiply" fill="url(#linear-gradient-15)" opacity="0.6"/>
                <path id="Path_13935" d="M480.787 346.125l-2.366.566-1.067 2.567-1.079-2.455-2.443-.324 1.791-1.978-.36-2.673 2.155 1.2 2.2-1.347-.5 2.67z" transform="translate(-423.159 -328.509)" style="isolation:isolate;mix-blend-mode:multiply" fill="url(#linear-gradient-16)" opacity="0.6"/>
                <path id="Path_13936" d="M388.21 364.337s2.784 1.692 2.32 7.785 1.334 35.653-2.61 34.976l3.19.9 1.044-38.586a4.377 4.377 0 0 0-3.944-5.075z" class="cls-25" transform="translate(-354.213 -346.807)"/>
                <path id="Path_13937" fill="url(#linear-gradient-17)" d="M423.444 404.5a1.471 1.471 0 0 1-.858-.294q-7.952 3.255-16.076 6.1c-.024 3.608-.132 7.617-.273 11.49 6.158-3.111 12.3-6.227 18.592-9.087q1.768-.8 3.545-1.589c-.274-3.126-1.296-6.483-4.93-6.62z" transform="translate(-368.913 -378.999)"/>
                <path id="Path_13938" d="M259.273 319.68c8.752-3.665 31.985-6.807 31.985-6.807.348-2.257-4.409-2.6-4.409-2.6s-28.423 8.011-31.439 8.575-35.848-9.026-35.848-9.026c-3.364.113-2.088 1.58-2.088 1.58 3.481-1.015 33.876 8.575 36.312 10.154s-.116 42.2-.116 42.2a3.115 3.115 0 0 0 3.227-.066l.014.013 18.751-16.178a20 20 0 0 0 3.879-3.776c1.649-2.406.773-14.027-.155-15.494s-17.827-5.228-21.307-7.146c0-.001-.146-.571 1.194-1.429zm-.035 3.685c3.48 2.031 18.987 4.1 19.219 6.469.264 2.7.517 6.994.619 9.7.112 2.984-3.856 6.739-6.02 8.926-2.632 2.66-5.479 4.238-8.251 6.759a59.179 59.179 0 0 1-5.578 4.781c-3.195 2.26-3.329-1.114-3.394-3.6-.086-3.3-.137-6.6-.165-9.9-.043-5.065 0-10.131.085-15.2q.03-1.753.07-3.505c.014-.65.368-2.222.07-2.794.059.113.1.173.1.173s-.234-3.84 3.246-1.809z" class="cls-25" transform="translate(-217.237 -302.789)"/>
                <path id="Path_13939" d="M411.029 468.435l-2.771 1.695-2.04-1.13c-.053 1.929-.118 3.878-.191 5.781l.792.105 1.358 3.088 1.343-3.229 2.976-.712-2.1-2.237z" class="cls-15" transform="translate(-368.744 -430.868)"/>
                <path id="Path_13940" d="M442.716 506.718l-3.959.166-2.021-3.324-1.679 3.993-4.1 1.368 3.131 2.333-.473 4.015z" class="cls-15" transform="translate(-388.75 -459.231)"/>
                <path id="Path_13941" d="M575.022 322.9s2.9-1.467 2.668 4.964-.464 32.268-.464 32.268.116 3.385-.7 4.062l1.279-.178s.925-41.342.462-42.131-3.245 1.015-3.245 1.015z" class="cls-25" transform="translate(-504.365 -312.363)"/>
                <path id="Path_13942" d="M376.734 322.094s.812-2.031-4.293-1.354-26.509 5.077-29 6.657c-2.067 1.309.348 2.031 6.845 5.416 0 0-7.831-4.062-8.933-3.5-.959.491-.58 8.687-.58 8.687s-.348-8.462-2.9-9.928l-13.689-4.739s12.181 3.893 16.706 3.949c2.029.025 22.39-5.754 31.207-7.221 1.251-.206 4.753-1.351 4.637 2.033z" transform="translate(-303.061 -310.77)" style="mix-blend-mode:hard-light;isolation:isolate" fill="url(#linear-gradient-20)"/>
                <path id="Path_13943" d="M501.591 446.367s5.45-4.093 6.033-5.98c1.392-4.513-.116-9.816-.116-9.816s.464 7-.7 9.928c-.808 2.045-5.217 5.868-5.217 5.868z" transform="translate(-445.436 -400.292)" style="mix-blend-mode:hard-light;isolation:isolate" fill="url(#linear-gradient-21)"/>
                <path id="Path_13944" d="M463.292 546.1l-1.233-2.094-1.085 2.481-2.575.82 1.936 1.485-.187 1.41 4.126-1.169-.206-.952 1.824-2.054z" class="cls-15" transform="translate(-410.773 -491.894)"/>
                <path id="Path_13945" d="M555.012 348.614l-3.567-2.4-.072 3.836-3.808 2.128 4.394 1.169 1.368 3.55 2.593-2.909.162.01.062-5.665z" class="cls-15" transform="translate(-482.33 -332.174)"/>
                <path id="Path_13946" d="M573.663 427.109l-.512.313-2.156-1.2.36 2.673-1.791 1.978 2.443.324 1.079 2.455.518-1.246z" class="cls-15" transform="translate(-499.986 -396.783)"/>
                <path id="Path_13947" d="M567.932 514.46l.046-4.153-3.447-2.316-.072 3.836-1.744.974z" class="cls-15" transform="translate(-494.489 -462.809)"/>
                <path id="Path_13948" d="M220.8 414.463l-1.679-4.295-.764 1.353v8.637l.338-.1 3.576 2.952-.5-4.565 3.131-2.51z" transform="translate(-218.138 -383.816)" style="isolation:isolate;mix-blend-mode:multiply" fill="url(#linear-gradient-7)" opacity="0.3"/>
                <path id="Path_13949" d="M298.19 542.279l-3.864-2.363.713 3.8c2.279.655 4.724 1.355 7.1 2.036l-.8-.883.631-4.688z" transform="translate(-279.102 -488.589)" style="isolation:isolate;mix-blend-mode:multiply" fill="url(#linear-gradient-7)" opacity="0.4"/>
                <path id="Path_13950" d="M396.009 470.834l-2.085-.4 1.315 2.858-1.934 2.708 2.512.394z" class="cls-15" transform="translate(-358.534 -432.478)"/>
                <path id="Path_13951" fill="url(#linear-gradient-29)" d="M401.774 527.207c-.406-2.426-.29-4.964 1.1-13.99 0 0-1.091 14.933 2.2 13.934.006 0-3.074 1.404-3.3.056z" transform="translate(-365.167 -467.03)"/>
                <path id="Path_13952" fill="url(#linear-gradient-30)" d="M269 301.9l5.94 1.061 6.912-.323-2.13 1.386 4.684 1.319-7.624-.174-4.418 1.172-2.106-1.533-6.94-.634 5.921-.74z" opacity="0.4" transform="translate(-254.214 -296.387)"/>
                <path id="Path_13953" fill="url(#linear-gradient-31)" d="M372.388 319.873l5.941 1.061 6.912-.323-2.132 1.389 4.685 1.319-7.625-.174-4.418 1.172-2.106-1.533-6.939-.634 5.921-.74z" transform="translate(-337.187 -310.902)"/>
                <path id="Path_13954" fill="url(#linear-gradient-32)" d="M354.8 283.825l4.406.787 5.126-.24-1.58 1.028 3.474.978-5.655-.129-3.277.869-1.562-1.137-5.147-.47 4.391-.549z" opacity="0.4" transform="translate(-324.252 -281.793)"/>
                <path id="Path_13955" fill="url(#linear-gradient-33)" d="M466.026 303.363l4.406.787 5.126-.24-1.58 1.028 3.474.978-5.654-.129-3.277.869-1.562-1.137-5.147-.47 4.392-.549z" transform="translate(-413.511 -297.57)"/>
                <path id="Path_13956" fill="url(#linear-gradient-34)" d="M453.261 285.547c-1.1-.294-2.2-.427-3.262-.688l.047.3-2.94.367 3.446.315 1.046.761 2.194-.582 1.375.031c-.637-.17-1.274-.334-1.906-.504z" opacity="0.3" transform="translate(-401.71 -282.628)"/>
            </g>
            <g id="Group_10580" transform="translate(12.496 27.933)">
                <path id="Path_13957" d="M319.53 379.257l1.221.371v-41.213s-.177-2.6 3.535-3.385l-4.06.9s-1.856 0-1.508 3.272.812 40.055.812 40.055z" class="cls-37" transform="translate(-311.138 -324.462)"/>
                <path id="Path_13958" fill="url(#linear-gradient-35)" d="M288.636 335.412l.232-42.2a1.8 1.8 0 0 1 1.392-1.956c1.547-.3 35.731-8.575 35.731-8.575l-10.441-2.557-33.8 8.575s-1.237.151-1.237 2.407v41.9z" transform="translate(-280.515 -280.128)"/>
                <g id="Group_10579" transform="translate(7.862 5.812)">
                    <path id="Path_13959" fill="#ffc969" d="M343.243 310.32c-9.38 2.232-19.987 4.771-21.1 5.1a2.589 2.589 0 0 0-1.788 2.94v41.427h.464v-41.479a2.121 2.121 0 0 1 1.464-2.452c1.085-.325 11.6-2.842 20.944-5.066a1.365 1.365 0 0 1 .016-.47z" transform="translate(-320.326 -310.32)"/>
                </g>
            </g>
            <g id="Group_10582" transform="translate(14.949 28.384)">
                <path id="Path_13960" d="M464.918 383.947l-1.222.371V343.1s.177-2.595-3.535-3.385l4.06.9s1.856 0 1.508 3.272-.811 40.06-.811 40.06z" class="cls-37" transform="translate(-427.136 -328.701)"/>
                <path id="Path_13961" fill="url(#linear-gradient-36)" d="M330.984 338.208l-.232-42.2a1.8 1.8 0 0 0-1.392-1.956c-1.547-.3-36.428-9.477-36.428-9.477l10.441-2.106 34.494 9.026s1.237.15 1.237 2.407v41.9z" transform="translate(-292.932 -282.473)"/>
                <g id="Group_10581" transform="translate(.177 2.112)">
                    <path id="Path_13962" fill="#e55c00" d="M331.473 347.07h.464v-41.427a2.589 2.589 0 0 0-1.788-2.94c-1.995-.6-34.832-8.93-36.209-9.255l-.11.439c.337.08 34.2 8.655 36.183 9.248a2.121 2.121 0 0 1 1.463 2.452v.04z" transform="translate(-293.83 -293.447)"/>
                </g>
            </g>
            <path id="Path_13963" d="M327.118 312.377l10.093-2.257-6.265-1.467s-3.246 1.354-3.828 3.724z" class="cls-7" transform="translate(-305.418 -275.229)"/>
            <path id="Path_13964" d="M294.633 322.135s-.928 4.4 5.8 4.626z" class="cls-7" transform="translate(-279.313 -286.116)"/>
            <path id="Path_13965" d="M329.892 284.647c-3.007-.79-12.172 0-12.172 0s3.828-2.144 6.728-2.369l6.381 1.467s-.618.986-.937.902z" class="cls-7" transform="translate(-297.876 -253.931)"/>
            <path id="Path_13966" d="M377.741 303.639L376.7 301.5l-11.485-3.046s-4.8-.87-7.171-.44l-3.145-1.139a7.961 7.961 0 0 0-6.042 2.257l5.8 1.467s6.613 1.015 9.907-.25c.373.051.746.323 1.115.362z" class="cls-7" transform="translate(-322.862 -265.702)"/>
            <g id="Group_10596" transform="translate(4.069)">
                <g id="Group_10587" transform="translate(33.66 3.077)">
                    <g id="Group_10584" transform="translate(0 .072)">
                        <path id="Path_13967" fill="url(#linear-gradient-37)" d="M433.195 153.273c-4.944-2.678-12.231.879-15.024 4.36-4.548 5.668-8.63 14.354-8.71 21.648 1.349.446 2.781.842 4.169 1.153 1.6-2.247 1.725-5.545 3.042-7.986a26.963 26.963 0 0 1 6.2-7.774c1.887-1.606 3.652-3.242 6.318-2.657 1.831.4 4.35 2.871 2.715 4.739-.005.002 4.83-11.565 1.29-13.483z" transform="translate(-409.228 -152.149)"/>
                        <g id="Group_10583">
                            <path id="Path_13968" fill="#ffe655" d="M513.354 151.369c.29.08.589.154.892.227a6.421 6.421 0 0 0-.892-.227z" transform="translate(-492.604 -151.369)"/>
                            <path id="Path_13969" fill="url(#linear-gradient-38)" d="M436.931 170.451a68.646 68.646 0 0 0 .153-8.157c-.268-2.547-.815-6.288-2.892-8.077a10.064 10.064 0 0 0-4.268-1.671c5.193 1.737 2.668 9.274.21 12.272-5.012 6.112-20.565 6.4-21.851 15.309l.651 1.276a6.162 6.162 0 0 1 1.451.482c2.391-1.3 6.7-.919 9.036-1.075a25.449 25.449 0 0 0 14.4-5.53c2.219-1.715 3.069-2.072 3.11-4.829z" transform="translate(-408.283 -152.32)"/>
                        </g>
                    </g>
                    <g id="Group_10585" transform="translate(.376)">
                        <path id="Path_13970" d="M412.116 174.736l-.32-.327c.127-.118 3.208-2.919 10.286-5.538 7.359-2.723 11.487-5.466 12.227-12.149.23-2.084-.266-3.576-1.475-4.432-2.066-1.464-5.631-.717-6.94-.151-.129.056-.28.116-.452.184-2.708 1.078-9.9 3.942-14.81 21.707l-.448-.117c4.969-17.98 12.316-20.906 15.082-22.007.166-.066.313-.125.439-.179 1.386-.6 5.174-1.381 7.4.2 1.353.959 1.912 2.589 1.662 4.845-.765 6.915-4.991 9.736-12.523 12.522-6.988 2.585-10.098 5.414-10.128 5.442z" class="cls-45" transform="translate(-410.185 -150.995)"/>
                    </g>
                    <g id="Group_10586" transform="translate(18.532 10.56)" style="mix-blend-mode:hard-light;isolation:isolate">
                        <path id="Path_13971" fill="url(#linear-gradient-40)" d="M506.734 205.857a11.718 11.718 0 0 1-1.292 2.01 12.031 12.031 0 0 1-3.32 2.666c1.338.813 2.662 1.644 4.013 2.366 1.862 1 3.7 2.1 5.5 3.208a4.671 4.671 0 0 0 .6-2.608c.025-1.629.177-3.276.233-4.914-1.623-.741-5.433-2.585-5.734-2.728z" transform="translate(-502.122 -205.857)"/>
                    </g>
                </g>
                <g id="Group_10590">
                    <g id="Group_10588">
                        <path id="Path_13972" fill="url(#linear-gradient-41)" d="M275.352 201.814c-2.592-1.067-4.78-3.67-7.4-5.1a50.5 50.5 0 0 1-7.721-4.552c-3.165-2.539-7.046-5.819-3.985-9.945-1.918-.123-9.909 4.323-8.857 5.075l-.55 5.042c1.239 1.573 1.691 3.164 3.554 4.467a23.519 23.519 0 0 0 8.354 3.391c5.54 1.207 11.642 2.26 16.725 3.843a3.27 3.27 0 0 1-.12-2.221z" transform="translate(-245.059 -173.128)"/>
                        <path id="Path_13973" fill="url(#linear-gradient-42)" d="M266.42 152.175c-1.944-6.02-5.54-12.143-11.558-15.19-2.164-1.1-5.605-2.727-7.626-1.587-2.6 1.469-4.637 4.891-6.252 7.264-1.907 2.8-3.793 4.974-2.928 8.454a13.8 13.8 0 0 0 2.889 5.541c-.417-2.217-.969-4.86.626-6.734 1.794-2.108 6.071-2.635 8.71-2.191 4.383.737 8.056 5.106 10.652 8.3 1.256 1.544 5.9 9.3 6.919 9.374l1.511-.622-.119-.436c-1.27-3.83-1.526-8.154-2.824-12.173z" transform="translate(-237.84 -135.011)"/>
                        <path id="Path_13974" fill="url(#linear-gradient-43)" d="M313.287 145.244l-.012-.006c-.636 2.447-2.338 10.006-2.633 11.322a17.5 17.5 0 0 1 5.606 4.146 68.627 68.627 0 0 1 4.647-8.547 20.473 20.473 0 0 0-7.608-6.915z" transform="translate(-296.265 -143.269)"/>
                    </g>
                    <g id="Group_10589" transform="translate(2.398 12.165)">
                        <path id="Path_13975" d="M275.888 216.35c-.045-.007-5.046-.75-16.066-3.429-4.621-1.124-7.671-2.864-9.065-5.173a4.624 4.624 0 0 1-.7-3.347c.021-5.677 6.287-6.046 6.7-6.064 4.065-.756 8.656 1.956 13.646 8.057a59.045 59.045 0 0 1 6.025 8.978l-.232.414c-.1-.19-10.056-18.755-19.368-17h-.038c-.256.006-6.27.215-6.27 5.641l-.008.059a4.221 4.221 0 0 0 .654 3.048c.917 1.508 3.182 3.59 8.768 4.948 10.994 2.673 16.063 3.522 16.108 3.529z" class="cls-45" transform="translate(-249.981 -198.213)"/>
                    </g>
                </g>
                <g id="Group_10592" transform="translate(11.424 28.315)">
                    <path id="Path_13976" fill="url(#linear-gradient-45)" d="M297.244 287c-1.776 2.119-2.242 3.221-.272 4.795 1.446 1.155 3.25 1.916 4.709 3.024.617-7.135 8.054-12.167 14.369-9.173l-.7-2.708c-5.75-1.79-14.071-.756-18.106 4.062z" transform="translate(-295.689 -282.115)"/>
                    <g id="Group_10591" transform="translate(5.762 2.401)">
                        <path id="Path_13977" fill="url(#linear-gradient-46)" d="M325.309 305.042l-.445-.413c.015-.1 1.626-9.7 10.761-10.042l.018.451c-8.755.328-10.319 9.909-10.334 10.004z" transform="translate(-324.864 -294.587)"/>
                    </g>
                </g>
                <g id="Group_10594" transform="translate(34.105 27.271)">
                    <path id="Path_13978" fill="url(#linear-gradient-47)" d="M411.7 278.554l-1.16 3.61c.949-1.342 6.249-.242 7.947.006 3.228.471 7.191 1.833 8.526 4.891.764-1.964.284-5.063 2.066-6.714-3.121-5.124-12.771-4.019-17.379-1.793z" transform="translate(-410.536 -276.688)"/>
                    <g id="Group_10593" transform="translate(4.475 4.724)">
                        <path id="Path_13979" d="M444.978 306.965c-2.009-4.766-11.686-5.279-11.784-5.284l.023-.451c.41.019 10.069.532 12.19 5.563z" class="cls-45" transform="translate(-433.194 -301.231)"/>
                    </g>
                </g>
                <g id="Group_10595" transform="translate(27.573 24.531)">
                    <path id="Path_13980" fill="url(#linear-gradient-49)" d="M380.012 262.451c.368 2.4-2.253 6.648-2.549 6.723 1.042 2.969 5.61 2.111 8.277 1.926 2.208-.154 2.55-.117 3.054-1.991a35.011 35.011 0 0 0 .612-3.576c-3.323-2.425-6.621-.872-9.394-3.082z" transform="translate(-377.463 -262.451)"/>
                    <path id="Path_13981" d="M395.813 275.542c.045-.347.09-.707.159-1.126a74.1 74.1 0 0 0-9.541-1.351 13.066 13.066 0 0 1-.721 1.962 88.641 88.641 0 0 1 10.103.515z" transform="translate(-384.081 -271.022)" style="mix-blend-mode:hard-light;isolation:isolate" fill="url(#linear-gradient-50)"/>
                </g>
            </g>
            <path id="Path_13982" d="M494.833 359.521v-4.346c-2.528 1.313-5.106 2.53-7.7 3.709-.208.095-.2 7.5.033 7.305 2.393-2.103 7.058-6.153 7.667-6.668z" transform="translate(-433.712 -312.796)" style="mix-blend-mode:hard-light;isolation:isolate" fill="url(#linear-gradient-51)"/>
        </g>
    </g>
</svg>
