<svg xmlns="http://www.w3.org/2000/svg" width="86" height="18" viewBox="0 0 86 18">
    <defs>
        <style>
            .cls-1{fill:#4f2da7}
        </style>
    </defs>
    <g id="logo" transform="translate(-197 -249)">
        <g id="logo-2" data-name="logo" transform="translate(197 249)">
            <g id="ic">
                <path id="Path_5" d="M1665.947 1516.588l-3.768 7.74a.412.412 0 0 0 .377.589h7.414a.412.412 0 0 0 .379-.585l-3.647-7.74a.42.42 0 0 0-.755-.004z" class="cls-1" data-name="Path 5" transform="translate(-1658.549 -1516.354)"/>
                <path id="Path_6" d="M1586.458 1744.14l6.228-.016a.411.411 0 0 1 .209.769l-8.578 4.839a.415.415 0 0 1-.583-.536l2.35-4.822a.418.418 0 0 1 .374-.234z" class="cls-1" data-name="Path 6" transform="translate(-1583.69 -1733.855)"/>
                <path id="Path_7" d="M1630.234 1760.218l2.919 6.194a.412.412 0 0 1-.379.585l-13.883-.018a.411.411 0 0 1-.207-.769l10.965-6.176a.421.421 0 0 1 .585.184z" class="cls-1" data-name="Path 7" transform="translate(-1616.881 -1748.997)"/>
            </g>
            <g id="lista" transform="translate(25.207 1.5)">
                <path id="Path_47" d="M151.182 99.285a4.232 4.232 0 0 1-3.033-1.251 4.1 4.1 0 0 1-1.249-3v-9.29a1.1 1.1 0 0 1 1.142-1.143 1.19 1.19 0 0 1 .821.322 1.133 1.133 0 0 1 .321.822v9.29A1.951 1.951 0 0 0 151.146 97h7.029a1.144 1.144 0 1 1 0 2.287z" class="cls-1" data-name="Path 47" transform="translate(-146.9 -84.529)"/>
                <path id="Path_48" d="M191.321 98.9a1.133 1.133 0 0 1-.321-.822V85.643a1.142 1.142 0 1 1 2.284 0v12.434a1.193 1.193 0 0 1-.321.822 1.208 1.208 0 0 1-1.641 0z" class="cls-1" data-name="Path 48" transform="translate(-175.264 -84.464)"/>
                <path id="Path_49" d="M210.666 90.781a6.322 6.322 0 0 1 3.961 1.251 3.69 3.69 0 0 1 1.606 3.037 3.737 3.737 0 0 1-1.606 3.037 6.322 6.322 0 0 1-3.961 1.251h-.036a5.833 5.833 0 0 1-1.356-.143 1.1 1.1 0 0 1-.749-.5 1.063 1.063 0 0 1-.178-.858 1.033 1.033 0 0 1 .5-.715 1.059 1.059 0 0 1 .856-.179 4.423 4.423 0 0 0 .963.107 4.146 4.146 0 0 0 2.355-.643 1.406 1.406 0 0 0 0-2.644 6.248 6.248 0 0 0-1.855-.572 6.939 6.939 0 0 0-.892-.071 6.205 6.205 0 0 1-3.568-1.215 3.69 3.69 0 0 1-1.606-3.037 3.737 3.737 0 0 1 1.606-3.037 6.322 6.322 0 0 1 3.961-1.251h.036a7.026 7.026 0 0 1 5.138 2.144 1.133 1.133 0 0 1 .321.822 1.193 1.193 0 0 1-.321.822 1.13 1.13 0 0 1-.821.322 1.19 1.19 0 0 1-.821-.322 4.817 4.817 0 0 0-3.568-1.465h-.031a4.146 4.146 0 0 0-2.355.643 1.406 1.406 0 0 0 0 2.644 5.286 5.286 0 0 0 2.426.572zm-3.176 5.074a1 1 0 0 1 .393.786 1.072 1.072 0 0 1-.25.858 1.131 1.131 0 0 1-.892.429 1.028 1.028 0 0 1-.714-.25 3.817 3.817 0 0 1-.571-.5 1.133 1.133 0 0 1-.321-.822 1.193 1.193 0 0 1 .321-.822 1.13 1.13 0 0 1 .821-.322 1.19 1.19 0 0 1 .821.322 3.785 3.785 0 0 0 .393.321z" class="cls-1" data-name="Path 49" transform="translate(-184.333 -84.529)"/>
                <path id="Path_50" d="M253.559 84.5a1.1 1.1 0 0 1 1.142 1.143 1.194 1.194 0 0 1-.321.822 1.13 1.13 0 0 1-.821.322h-1.57a3.536 3.536 0 0 0-3.5 3.5v7.753a1.142 1.142 0 1 1-2.284 0v-7.752a5.676 5.676 0 0 1 1.178-3.5h-6.244a1.144 1.144 0 1 1 0-2.287z" class="cls-1" data-name="Path 50" transform="translate(-206.78 -84.464)"/>
                <path id="Path_51" d="M290.784 97.513a1.038 1.038 0 0 1 .071.857 1.026 1.026 0 0 1-.571.643 1.258 1.258 0 0 1-.5.107 1.09 1.09 0 0 1-1.035-.643l-1.677-3.394a13.744 13.744 0 0 0-6.458 1.929 10.262 10.262 0 0 0-2.319 1.751 1.057 1.057 0 0 1-.856.357 1 1 0 0 1-.642-.214 1.157 1.157 0 0 1-.464-.643 1.181 1.181 0 0 1 .071-.786l6.173-12.434a1.058 1.058 0 0 1 1.035-.643 1.09 1.09 0 0 1 1.035.643l2.462 4.966a1.03 1.03 0 0 1 .036.857 1.19 1.19 0 0 1-.571.679 1.034 1.034 0 0 1-.856.071 1.189 1.189 0 0 1-.678-.572l-1.427-2.93-3.14 6.324a16.042 16.042 0 0 1 7.279-1.715H288l.071.036h.036l.071.036.036.036a.125.125 0 0 1 .071.036l.036.036.036.036.036.036.036.036.036.036.036.036.036.036.036.036.036.036.036.036.036.036.036.071z" class="cls-1" data-name="Path 51" transform="translate(-230.125 -84.4)"/>
            </g>
        </g>
    </g>
</svg>
