<svg xmlns="http://www.w3.org/2000/svg" width="24" height="22" viewBox="0 0 24 22">
  <g id="logo_waze" transform="translate(0 -16)">
    <path id="Path_13427" data-name="Path 13427" d="M28.75,49.6c5.385,0,9.75-3.939,9.75-8.8S34.135,32,28.75,32,19,35.939,19,40.8c0,0,.7,4.4-3,4.4,0,3.667,6.75,4.4,12.75,4.4" transform="translate(-15.25 -15.267)" fill="#bbdefb"/>
    <path id="Path_13428" data-name="Path 13428" d="M13.5,35.067C4.416,35.067,0,33.387,0,29.933A.742.742,0,0,1,.75,29.2a2.076,2.076,0,0,0,1.66-.634,4.241,4.241,0,0,0,.6-2.92C3,20.277,7.71,16,13.5,16S24,20.277,24,25.533,19.289,35.067,13.5,35.067ZM1.614,30.59C2.328,32.563,6.4,33.6,13.5,33.6c4.963,0,9-3.62,9-8.067s-4.037-8.067-9-8.067-9,3.618-9,8.067h0a5.468,5.468,0,0,1-.949,3.986A3.287,3.287,0,0,1,1.614,30.59Z" transform="translate(0)" fill="#455a64"/>
    <g id="Group_4495" data-name="Group 4495" transform="translate(4.5 32.133)">
      <ellipse id="Ellipse_1069" data-name="Ellipse 1069" cx="3" cy="2.933" rx="3" ry="2.933" transform="translate(9)" fill="#37474f"/>
      <ellipse id="Ellipse_1070" data-name="Ellipse 1070" cx="3" cy="2.933" rx="3" ry="2.933" fill="#37474f"/>
    </g>
    <g id="Group_4496" data-name="Group 4496" transform="translate(9 22.6)">
      <path id="Path_13429" data-name="Path 13429" d="M209.237,161.467a.749.749,0,0,1-.757-.733.736.736,0,0,1,.742-.733h.015a.734.734,0,1,1,0,1.467Z" transform="translate(-207.707 -160)" fill="#455a64"/>
      <path id="Path_13430" data-name="Path 13430" d="M337.237,161.467a.75.75,0,0,1-.758-.733.736.736,0,0,1,.743-.733h.015a.734.734,0,1,1,0,1.467Z" transform="translate(-329.707 -160)" fill="#455a64"/>
      <path id="Path_13431" data-name="Path 13431" d="M196.5,244.4a4.547,4.547,0,0,1-4.482-3.505.735.735,0,0,1,.567-.877.753.753,0,0,1,.9.554,3.109,3.109,0,0,0,6.036,0,.751.751,0,0,1,.9-.554.735.735,0,0,1,.568.877A4.549,4.549,0,0,1,196.5,244.4Z" transform="translate(-191.997 -236.33)" fill="#455a64"/>
    </g>
  </g>
</svg>
