<svg xmlns="http://www.w3.org/2000/svg" width="16" height="22" viewBox="0 0 16 22">
  <g id="logo_google_maps" transform="translate(-77.133)">
    <path id="Path_13432" data-name="Path 13432" d="M104.99,139.706l-2.377,3.372L99.1,146.437a24.78,24.78,0,0,1-3.6-5.011l1.894-2.788,2.905-2.693a2.853,2.853,0,0,0,.218,3.921,3.146,3.146,0,0,0,4.323,0C104.889,139.814,104.941,139.761,104.99,139.706Z" transform="translate(-17.541 -130.104)" fill="#ecb72b"/>
    <path id="Path_13433" data-name="Path 13433" d="M209.131,17.511a2.852,2.852,0,0,0-.21-3.93,3.146,3.146,0,0,0-4.323,0q-.075.072-.144.148l2-3.13,2.719-2.269a7.947,7.947,0,0,1,4.68,3.78l-1.984,3.073Z" transform="translate(-121.626 -7.972)" fill="#5085f7"/>
    <path id="Path_13434" data-name="Path 13434" d="M82.754,67.106l-4.8,5.481a8.463,8.463,0,0,1-.817-3.417c0-.073,0-.146,0-.219A7.476,7.476,0,0,1,79,64.015Z" transform="translate(0 -61.264)" fill="#da2f2a"/>
    <path id="Path_13435" data-name="Path 13435" d="M122.63,5.842,118.876,2.75A8.118,8.118,0,0,1,125.009,0a8.294,8.294,0,0,1,2.418.358Z" transform="translate(-39.876)" fill="#4274eb"/>
    <path id="Path_13436" data-name="Path 13436" d="M187.651,99.854a7.413,7.413,0,0,0-.9-3.547l-10.673,12.2a12.591,12.591,0,0,1,2.781,4.875c.015.06.031.13.048.208a.769.769,0,0,0,1.492,0c.017-.079.033-.148.048-.208,1.228-4.98,7.058-7.525,7.2-13.3C187.649,100,187.651,99.928,187.651,99.854Z" transform="translate(-94.518 -92.169)" fill="#60a850"/>
  </g>
</svg>
