<svg xmlns="http://www.w3.org/2000/svg" width="38" height="38" viewBox="0 0 38 38">
    <defs>
        <linearGradient id="67nb48jgna" x1=".5" x2=".5" y2="1" gradientUnits="objectBoundingBox">
            <stop offset="0" stop-color="#61fd7d"/>
            <stop offset="1" stop-color="#25cf43"/>
        </linearGradient>
    </defs>
    <g transform="translate(-242 -428)">
        <circle cx="19" cy="19" r="19" fill="url(#67nb48jgna)" transform="translate(242 428)"/>
        <path fill="#fff" d="M1.6 16.945a11.3 11.3 0 1 1 9.79 5.659 11.289 11.289 0 0 1-5.4-1.375L0 22.8zm5.007 2.442a9.374 9.374 0 0 0 4.782 1.313 9.391 9.391 0 1 0-7.955-4.4l.223.355-.949 3.465 3.554-.932zm6.627-2.821a16.248 16.248 0 0 1-1.609-.595A12.584 12.584 0 0 1 6.8 11.708a5.492 5.492 0 0 1-1.153-2.92 3.166 3.166 0 0 1 .993-2.355 1.037 1.037 0 0 1 .753-.353c.188 0 .377 0 .541.01H8c.164 0 .37 0 .572.484.235.565.8 1.955.87 2.1a.52.52 0 0 1 .024.495 1.925 1.925 0 0 1-.282.471c-.141.165-.3.368-.423.495s-.288.294-.124.576a8.509 8.509 0 0 0 1.57 1.956 7.711 7.711 0 0 0 2.27 1.4c.282.141.447.118.612-.071s.706-.824.894-1.107.376-.236.635-.141 1.647.777 1.929.919.47.212.541.33a2.36 2.36 0 0 1-.165 1.342 2.907 2.907 0 0 1-1.905 1.342 4.617 4.617 0 0 1-.685.054 3.584 3.584 0 0 1-1.097-.169z" transform="translate(250 435)"/>
    </g>
</svg>
